<?xml version="1.0" encoding="UTF-8"?>
<svg xmlns="http://www.w3.org/2000/svg" viewBox="0 0 1671 632">
    <defs>
        <style>
            .cls-1 {
            fill: #fefce2;
            }

            .cls-2, .cls-3, .cls-4, .cls-5, .cls-6 {
            stroke-miterlimit: 10;
            }

            .cls-2, .cls-4 {
            stroke: #000333;
            }

            .cls-2, .cls-6 {
            fill: #efefef;
            }

            .cls-3, .cls-4 {
            fill: none;
            }

            .cls-3, .cls-5, .cls-6 {
            stroke: #000;
            }

            .cls-7 {
            fill: #fff;
            }

            .cls-8 {
            font-size: 24px;
            letter-spacing: -.04em;
            }

            .cls-8, .cls-9, .cls-10 {
            font-family: Manrope-Bold, Manrope;
            font-variation-settings: 'wght' 700;
            font-weight: 700;
            }

            .cls-11 {
            fill: #0a66ae;
            }

            .cls-12 {
            fill: #dff6fb;
            }

            .cls-5 {
            fill: #ea5413;
            }

            .cls-13 {
            letter-spacing: -.04em;
            }

            .cls-13, .cls-9, .cls-14 {
            font-size: 30px;
            }

            .cls-15 {
            font-size: 54px;
            letter-spacing: -.04em;
            }

            .cls-16 {
            fill: #bf1122;
            }

            .cls-9 {
            letter-spacing: .02em;
            }

            .cls-14 {
            letter-spacing: .08em;
            }

            .cls-17 {
            font-size: 28px;
            letter-spacing: -.04em;
            }
        </style>
    </defs>
    <g id="_レイヤー_6" data-name="レイヤー_6">
        <rect class="cls-7" x="-144" y="-180" width="1904" height="964"/>
    </g>
    <g id="_レイヤー_4" data-name="レイヤー_4">
        <text class="cls-9" transform="translate(1356.9 435.49)">
            <tspan x="0" y="0">Elevator</tspan>
            <tspan x="0" y="37">to the 4th floor</tspan>
        </text>
        <text class="cls-9" transform="translate(1354.77 275.51)">
            <tspan x="0" y="0">Restroom</tspan>
        </text>
        <text class="cls-9" transform="translate(1356.27 364.44)">
            <tspan x="0" y="0">Stairs</tspan>
        </text>
        <g>
            <rect class="cls-5" x="1266.28" y="409" width="66.5" height="66.5"/>
            <g>
                <path class="cls-7"
                      d="M1276.36,456.68l.03-28.91,17.41.02v4.34s-12.25-.01-12.25-.01v7.35s10.36.01,10.36.01v4.34s-10.37-.01-10.37-.01v8.53s12.67.01,12.67.01v4.34s-17.84-.02-17.84-.02Z"/>
                <path class="cls-7"
                      d="M1307.61,456.71l-8.93-28.92h5.48s4.01,14.52,4.01,14.52c.47,1.64.89,3.21,1.27,4.7.38,1.49.8,3.07,1.27,4.73h.19c.5-1.67.93-3.25,1.3-4.73.37-1.49.79-3.05,1.26-4.69l4-14.51h5.24s-8.95,28.9-8.95,28.9h-6.14Z"/>
            </g>
        </g>
        <g>
            <rect x="1266.78" y="319.64" width="66" height="66"/>
            <polyline class="cls-7"
                      points="1324.96 331.8 1309.33 331.8 1309.33 343.96 1297.17 343.96 1297.17 354.38 1286.75 354.38 1286.75 366.53 1274.59 366.53 1274.59 373.48 1293.7 373.48 1293.7 361.32 1304.12 361.32 1304.12 352.64 1314.54 352.64 1314.54 338.75 1324.96 338.75 1324.96 331.8"/>
        </g>
        <g>
            <rect class="cls-5" x="1266.28" y="409" width="66.5" height="66.5"/>
            <g>
                <path class="cls-7"
                      d="M1276.36,456.68l.03-28.91,17.41.02v4.34s-12.25-.01-12.25-.01v7.35s10.36.01,10.36.01v4.34s-10.37-.01-10.37-.01v8.53s12.67.01,12.67.01v4.34s-17.84-.02-17.84-.02Z"/>
                <path class="cls-7"
                      d="M1307.61,456.71l-8.93-28.92h5.48s4.01,14.52,4.01,14.52c.47,1.64.89,3.21,1.27,4.7.38,1.49.8,3.07,1.27,4.73h.19c.5-1.67.93-3.25,1.3-4.73.37-1.49.79-3.05,1.26-4.69l4-14.51h5.24s-8.95,28.9-8.95,28.9h-6.14Z"/>
            </g>
        </g>
        <g>
            <g>
                <circle class="cls-11" cx="1282.78" cy="248.64" r="10"/>
                <polygon class="cls-11"
                         points="1269.78 259.64 1296.78 259.64 1285.78 290.64 1280.78 290.64 1269.78 259.64"/>
            </g>
            <g>
                <circle class="cls-16" cx="1310.78" cy="248.64" r="10"/>
                <polygon class="cls-16"
                         points="1324.78 290.64 1297.78 290.64 1308.78 259.64 1313.78 259.64 1324.78 290.64"/>
            </g>
            <g>
                <circle class="cls-11" cx="1282.78" cy="248.64" r="10"/>
                <polygon class="cls-11"
                         points="1269.78 259.64 1296.78 259.64 1285.78 290.64 1280.78 290.64 1269.78 259.64"/>
            </g>
            <g>
                <circle class="cls-16" cx="1310.78" cy="248.64" r="10"/>
                <polygon class="cls-16"
                         points="1324.78 290.64 1297.78 290.64 1308.78 259.64 1313.78 259.64 1324.78 290.64"/>
            </g>
        </g>
        <g>
            <rect x="1266.78" y="319.64" width="66" height="66"/>
            <polyline class="cls-7"
                      points="1324.96 331.8 1309.33 331.8 1309.33 343.96 1297.17 343.96 1297.17 354.38 1286.75 354.38 1286.75 366.53 1274.59 366.53 1274.59 373.48 1293.7 373.48 1293.7 361.32 1304.12 361.32 1304.12 352.64 1314.54 352.64 1314.54 338.75 1324.96 338.75 1324.96 331.8"/>
        </g>
        <g>
            <path d="M478.67,126.26l-6.69-23.04h3.5l4.85,17.42,4.85-17.41,3.52-.02,4.85,17.42,4.85-17.42h3.52l-6.7,23.04h-3.33l-4.94-17.23-4.94,17.23h-3.33Z"/>
            <path d="M506.51,126.26v-23.04h14.72v3.15h-11.38v6.46h9.46v3.15h-9.46v7.12h11.38v3.15h-14.72Z"/>
            <path d="M535.35,126.74c-1.65,0-3.14-.29-4.47-.86s-2.42-1.39-3.28-2.45c-.86-1.06-1.42-2.32-1.67-3.78l3.49-.53c.35,1.41,1.09,2.5,2.21,3.29,1.12.78,2.43,1.18,3.92,1.18.93,0,1.78-.15,2.56-.44.78-.29,1.4-.71,1.88-1.26.47-.55.71-1.21.71-1.98,0-.42-.07-.78-.22-1.1-.14-.32-.34-.6-.59-.84-.25-.24-.55-.45-.91-.62-.36-.18-.75-.33-1.18-.46l-5.9-1.74c-.58-.17-1.16-.39-1.76-.66s-1.14-.63-1.64-1.07c-.5-.44-.9-.99-1.21-1.65-.31-.66-.46-1.45-.46-2.39,0-1.42.37-2.62,1.1-3.61s1.72-1.73,2.97-2.24c1.25-.51,2.65-.76,4.19-.76,1.56.02,2.95.3,4.18.83,1.23.53,2.26,1.3,3.07,2.3.82,1,1.38,2.21,1.69,3.62l-3.58.61c-.16-.86-.5-1.61-1.02-2.23s-1.16-1.1-1.92-1.44c-.76-.34-1.58-.51-2.46-.52-.85-.02-1.63.11-2.34.38-.71.28-1.28.67-1.7,1.17-.42.5-.63,1.08-.63,1.73s.19,1.16.56,1.55.83.71,1.38.94c.55.23,1.1.42,1.64.57l4.26,1.2c.53.15,1.14.35,1.82.6.68.25,1.33.6,1.97,1.05.63.45,1.16,1.04,1.58,1.78.42.74.62,1.67.62,2.79s-.23,2.18-.7,3.06c-.47.88-1.11,1.62-1.93,2.21-.82.59-1.76,1.04-2.82,1.34-1.07.3-2.19.45-3.38.45Z"/>
            <path d="M555.25,126.26v-19.89h-7.66v-3.15h18.67v3.15h-7.66v19.89h-3.34Z"/>
            <path d="M596.8,126.74c-1.55,0-2.97-.27-4.27-.81s-2.43-1.33-3.39-2.36-1.71-2.29-2.24-3.78-.8-3.17-.8-5.06c0-2.49.45-4.62,1.36-6.41.91-1.79,2.17-3.16,3.78-4.13,1.61-.97,3.47-1.45,5.57-1.45,2.71,0,4.87.63,6.49,1.89,1.62,1.26,2.72,3,3.3,5.22l-3.39.61c-.47-1.38-1.23-2.47-2.27-3.3-1.05-.82-2.36-1.24-3.94-1.25-1.63-.01-2.99.35-4.07,1.09-1.08.74-1.9,1.77-2.44,3.1-.54,1.33-.82,2.87-.83,4.63-.01,1.76.26,3.3.8,4.62s1.36,2.34,2.46,3.08c1.09.74,2.46,1.11,4.09,1.12,1.31.02,2.44-.22,3.38-.73.94-.51,1.69-1.25,2.25-2.23.55-.98.91-2.19,1.07-3.62h-4.48v-2.69h8.03c.02.19.04.45.05.76,0,.31.02.51.02.6,0,2.13-.41,4.04-1.23,5.71-.82,1.67-2.02,2.99-3.58,3.94-1.57.95-3.47,1.43-5.7,1.43Z"/>
            <path d="M622.05,126.74c-2.3,0-4.27-.5-5.89-1.51-1.62-1.01-2.86-2.41-3.72-4.22-.86-1.8-1.29-3.89-1.29-6.27s.43-4.47,1.29-6.27c.86-1.8,2.1-3.21,3.72-4.22,1.62-1.01,3.58-1.51,5.89-1.51s4.25.5,5.88,1.51c1.63,1.01,2.87,2.41,3.72,4.22.85,1.8,1.28,3.89,1.28,6.27s-.43,4.47-1.28,6.27c-.85,1.8-2.09,3.21-3.72,4.22-1.63,1.01-3.59,1.51-5.88,1.51ZM622.05,123.56c1.63.02,2.99-.34,4.07-1.08,1.08-.74,1.9-1.78,2.44-3.1.54-1.33.82-2.87.82-4.63s-.27-3.3-.82-4.62c-.54-1.32-1.36-2.34-2.44-3.08-1.08-.74-2.44-1.11-4.07-1.12-1.63-.02-2.99.34-4.07,1.07-1.08.74-1.9,1.77-2.44,3.1-.54,1.33-.82,2.88-.83,4.64-.01,1.76.26,3.3.8,4.62s1.36,2.34,2.46,3.08c1.09.74,2.46,1.11,4.09,1.12Z"/>
            <path d="M638.37,126.26v-23.04h3.34v19.89h10.43v3.15h-13.78Z"/>
            <path d="M656.79,126.26v-23.04h7.22c.21,0,.61,0,1.19.02.58.01,1.14.05,1.67.13,1.8.22,3.32.87,4.55,1.94,1.23,1.07,2.16,2.42,2.79,4.06.63,1.64.94,3.43.94,5.38s-.31,3.76-.94,5.4c-.63,1.64-1.56,2.99-2.79,4.05-1.23,1.06-2.75,1.7-4.55,1.93-.53.07-1.09.12-1.67.13-.58.01-.98.02-1.19.02h-7.22ZM660.21,123.08h3.79c.36,0,.79-.01,1.3-.03.5-.02.94-.06,1.33-.13,1.17-.22,2.12-.73,2.86-1.53.73-.79,1.27-1.77,1.61-2.94.34-1.16.51-2.4.51-3.71s-.18-2.61-.53-3.77c-.35-1.16-.89-2.13-1.62-2.91-.73-.78-1.67-1.28-2.82-1.5-.38-.07-.83-.12-1.34-.14-.51-.02-.94-.02-1.29-.02h-3.79v16.67Z"/>
            <path d="M689.12,126.26v-23.04h3.34v9.94h11.52v-9.94h3.36v23.04h-3.36v-9.95h-11.52v9.95h-3.34Z"/>
            <path d="M712.14,126.26l7.49-23.04h4.82l7.49,23.04h-3.47l-6.9-21.02h.86l-6.82,21.02h-3.47ZM716.03,121.06v-3.14h12.03v3.14h-12.03Z"/>
            <path d="M737.06,126.26v-23.04h3.34v19.89h10.43v3.15h-13.78Z"/>
            <path d="M755.79,126.26v-23.04h3.34v19.89h10.43v3.15h-13.78Z"/>
        </g>
        <rect class="cls-3" x="434.74" y="89.23" width="372.07" height="51"/>
        <rect class="cls-3" x="426.65" y="82.73" width="388.25" height="64"/>
        <rect class="cls-3" x="434.74" y="89.23" width="372.07" height="51"/>
        <rect class="cls-3" x="426.65" y="82.73" width="388.25" height="64"/>
        <line class="cls-3" x1="1104.78" y1="537.78" x2="69.78" y2="537.78"/>
        <rect class="cls-12" x="715.78" y="338.78" width="376" height="193"/>
        <text class="cls-10" transform="translate(818.29 452.86)">
            <tspan class="cls-17" x="0" y="0">#</tspan>
            <tspan class="cls-13" x="24.96" y="-5.28">pyconjp</tspan>
            <tspan class="cls-13" x="133.53" y="-1.28">_</tspan>
            <tspan class="cls-15" x="152.13" y="1.36">1</tspan>
        </text>
        <rect class="cls-12" x="295.78" y="338.78" width="390" height="193"/>
        <rect class="cls-1" x="78.62" y="344.78" width="195" height="79.5"/>
        <text class="cls-8" transform="translate(88.4 393.16)">
            <tspan x="0" y="0">Poster Sessions</tspan>
        </text>
        <rect class="cls-1" x="78.62" y="433.02" width="195" height="44"/>
        <rect class="cls-1" x="78.62" y="487.27" width="195" height="36.5"/>
        <circle class="cls-11" cx="1145.93" cy="349.35" r="10"/>
        <polygon class="cls-11" points="1132.93 360.35 1159.93 360.35 1148.93 391.35 1143.93 391.35 1132.93 360.35"/>
        <circle class="cls-16" cx="1144.93" cy="411.35" r="10"/>
        <polygon class="cls-16" points="1158.93 453.35 1131.93 453.35 1142.93 422.35 1147.93 422.35 1158.93 453.35"/>
        <g>
            <circle class="cls-11" cx="340.93" cy="220.35" r="10"/>
            <polygon class="cls-11" points="327.93 231.35 354.93 231.35 343.93 262.35 338.93 262.35 327.93 231.35"/>
        </g>
        <g>
            <circle class="cls-16" cx="299.93" cy="221.35" r="10"/>
            <polygon class="cls-16" points="313.93 263.35 286.93 263.35 297.93 232.35 302.93 232.35 313.93 263.35"/>
        </g>
        <line class="cls-4" x1="282.28" y1="331.28" x2="259.78" y2="331.28"/>
        <polyline class="cls-4" points="236.28 331.28 69.28 331.28 69.28 538.28"/>
        <polyline class="cls-4" points="1142.78 193.5 1099.28 193.5 1099.28 266.78"/>
        <line class="cls-4" x1="321.12" y1="194" x2="320.79" y2="286"/>
        <line class="cls-2" x1="859" y1="285.5" x2="936" y2="285.5"/>
        <polyline class="cls-6"
                  points="1174.28 193.41 1142.48 193.41 1142.48 277.67 1112.33 277.67 1112.33 303.18 1174.83 303.18 1174.5 193"/>
        <polyline class="cls-6"
                  points="1174.28 193.41 1142.48 193.41 1142.48 277.67 1112.33 277.67 1112.33 303.18 1174.83 303.18 1174.5 193"/>
        <g>
            <g>
                <rect class="cls-5" x="1053.64" y="212.76" width="25.99" height="25.99"/>
                <path class="cls-7"
                      d="M1057.58,231.4v-11.3s6.81,0,6.81,0v1.7s-4.79,0-4.79,0v2.87s4.05,0,4.05,0v1.7s-4.05,0-4.05,0v3.33s4.95,0,4.95,0v1.7s-6.97,0-6.97,0Z"/>
                <path class="cls-7"
                      d="M1069.8,231.41l-3.49-11.3h2.14s1.57,5.68,1.57,5.68c.18.64.35,1.25.5,1.84.15.58.31,1.2.5,1.85h.08c.19-.65.36-1.27.51-1.85.14-.58.31-1.19.49-1.83l1.56-5.67h2.05s-3.5,11.3-3.5,11.3h-2.4Z"/>
            </g>
            <g>
                <rect class="cls-5" x="1022.39" y="212.76" width="25.99" height="25.99"/>
                <path class="cls-7"
                      d="M1026.33,231.4v-11.3s6.81,0,6.81,0v1.7s-4.79,0-4.79,0v2.87s4.05,0,4.05,0v1.7s-4.05,0-4.05,0v3.33s4.95,0,4.95,0v1.7s-6.97,0-6.97,0Z"/>
                <path class="cls-7"
                      d="M1038.55,231.41l-3.49-11.3h2.14s1.57,5.68,1.57,5.68c.18.64.35,1.25.5,1.84.15.58.31,1.2.5,1.85h.08c.19-.65.36-1.27.51-1.85.14-.58.31-1.19.49-1.83l1.56-5.67h2.05s-3.5,11.3-3.5,11.3h-2.4Z"/>
            </g>
            <g>
                <rect class="cls-5" x="991.14" y="212.76" width="25.99" height="25.99"/>
                <path class="cls-7"
                      d="M995.08,231.4v-11.3s6.81,0,6.81,0v1.7s-4.79,0-4.79,0v2.87s4.05,0,4.05,0v1.7s-4.05,0-4.05,0v3.33s4.95,0,4.95,0v1.7s-6.97,0-6.97,0Z"/>
                <path class="cls-7"
                      d="M1007.3,231.41l-3.49-11.3h2.14s1.57,5.68,1.57,5.68c.18.64.35,1.25.5,1.84.15.58.31,1.2.5,1.85h.08c.19-.65.36-1.27.51-1.85.14-.58.31-1.19.49-1.83l1.56-5.67h2.05s-3.5,11.3-3.5,11.3h-2.4Z"/>
            </g>
            <g>
                <rect class="cls-5" x="959.89" y="212.76" width="25.99" height="25.99"/>
                <path class="cls-7"
                      d="M963.83,231.4v-11.3s6.81,0,6.81,0v1.7s-4.79,0-4.79,0v2.87s4.05,0,4.05,0v1.7s-4.05,0-4.05,0v3.33s4.95,0,4.95,0v1.7s-6.97,0-6.97,0Z"/>
                <path class="cls-7"
                      d="M976.05,231.41l-3.49-11.3h2.14s1.57,5.68,1.57,5.68c.18.64.35,1.25.5,1.84.15.58.31,1.2.5,1.85h.08c.19-.65.36-1.27.51-1.85.14-.58.31-1.19.49-1.83l1.56-5.67h2.05s-3.5,11.3-3.5,11.3h-2.4Z"/>
            </g>
            <g>
                <rect class="cls-5" x="928.64" y="212.76" width="25.99" height="25.99"/>
                <path class="cls-7"
                      d="M932.58,231.4v-11.3s6.81,0,6.81,0v1.7s-4.79,0-4.79,0v2.87s4.05,0,4.05,0v1.7s-4.05,0-4.05,0v3.33s4.95,0,4.95,0v1.7s-6.97,0-6.97,0Z"/>
                <path class="cls-7"
                      d="M944.8,231.41l-3.49-11.3h2.14s1.57,5.68,1.57,5.68c.18.64.35,1.25.5,1.84.15.58.31,1.2.5,1.85h.08c.19-.65.36-1.27.51-1.85.14-.58.31-1.19.49-1.83l1.56-5.67h2.05s-3.5,11.3-3.5,11.3h-2.4Z"/>
            </g>
        </g>
        <rect x="1103.78" y="213.78" width="31.95" height="31.95"/>
        <polyline class="cls-7"
                  points="1131.94 219.66 1124.38 219.66 1124.38 225.55 1118.49 225.55 1118.49 230.59 1113.45 230.59 1113.45 236.48 1107.56 236.48 1107.56 239.84 1116.81 239.84 1116.81 233.95 1121.85 233.95 1121.85 229.75 1126.9 229.75 1126.9 223.02 1131.94 223.02 1131.94 219.66"/>
        <polyline class="cls-3" points="1175 303 1175 327.78 1125.78 327.78"/>
        <polyline class="cls-3" points="1175 327.78 1175 394.28 1120.28 394.28 1120.28 344.28"/>
        <line class="cls-3" x1="1120.28" y1="394" x2="1120.28" y2="449.28"/>
        <polyline class="cls-6" points="1175.28 462.28 1102 462.28 1102 538 1175.28 538 1175.28 462.28"/>
        <polyline class="cls-3" points="1101.78 464 1101.78 330.78 1091.78 330.78"/>
        <line class="cls-3" x1="1070.28" y1="330.7" x2="1025.28" y2="330.7"/>
        <line class="cls-3" x1="985.28" y1="330.7" x2="891.28" y2="330.7"/>
        <line class="cls-3" x1="869.28" y1="330.7" x2="810.28" y2="330.7"/>
        <polyline class="cls-3" points="788 330.5 699.5 330.5 699.28 538.28"/>
        <polyline class="cls-4" points="282.28 331.28 282.28 538.28 282.28 331.28 370.28 331.28"/>
        <text/>
        <line class="cls-3" x1="654.28" y1="330.51" x2="609.28" y2="330.51"/>
        <line class="cls-3" x1="569.28" y1="330.51" x2="475.28" y2="330.51"/>
        <line class="cls-3" x1="453.28" y1="330.51" x2="394.28" y2="330.51"/>
        <line class="cls-3" x1="699.28" y1="330.51" x2="675.28" y2="330.51"/>
        <polyline class="cls-4" points="363 193.5 69.5 193.5 69.5 331"/>
        <rect class="cls-2" x="69.5" y="193.5" width="210" height="92"/>
        <line class="cls-2" x1="280" y1="285.5" x2="307" y2="285.5"/>
        <line class="cls-2" x1="335" y1="285.5" x2="362" y2="285.5"/>
        <rect class="cls-2" x="362.5" y="193.5" width="546" height="92"/>
        <line class="cls-2" x1="858.5" y1="193.5" x2="1099.49" y2="193.5"/>
        <line class="cls-3" x1="1175" y1="394.28" x2="1175" y2="463"/>
        <text class="cls-10" transform="translate(397.34 451.79)">
            <tspan class="cls-17" x="0" y="0">#</tspan>
            <tspan class="cls-13" x="24.96" y="-5.28">pyconjp</tspan>
            <tspan class="cls-14" x="133.53" y="-1.28">_</tspan>
            <tspan class="cls-15" x="155.73" y="3.36">2</tspan>
        </text>
        <text class="cls-8" transform="translate(111.42 463.48)">
            <tspan x="0" y="0">Break Room</tspan>
        </text>
        <text class="cls-8" transform="translate(97.66 514.16)">
            <tspan x="0" y="0">Unconference</tspan>
        </text>
    </g>
</svg>