<svg width="327" height="426" viewBox="0 0 327 426" fill="none" xmlns="http://www.w3.org/2000/svg">
<g clip-path="url(#clip0_2612_4404)">
<path d="M2.66351 411.914V420.118H1.76189V411.914H0.763672V411.077H1.79409V406.766C1.79409 404.224 3.11432 403.677 4.17695 403.677C4.56336 403.677 4.78876 403.774 4.94976 403.806V404.642C4.72436 404.546 4.53115 404.546 4.27355 404.546C3.50073 404.546 2.69571 404.867 2.69571 406.959V411.077H4.94976V411.914H2.69571H2.66351Z" fill="#005399"/>
<path d="M9.3291 411.077H10.2307V412.268C10.5527 411.495 11.2611 410.884 12.2272 410.884C12.4848 410.884 12.839 410.916 13.1932 411.109L12.7424 411.914C12.7424 411.914 12.4848 411.721 12.0662 411.721C10.2307 411.721 10.2307 414.134 10.2307 415.26V420.118H9.3291V411.077Z" fill="#005399"/>
<path d="M26.3312 415.614C26.3312 418.284 24.2704 420.376 21.5655 420.376C18.8607 420.376 16.7998 418.317 16.7998 415.614C16.7998 412.911 18.8607 410.852 21.5655 410.852C24.2704 410.852 26.3312 412.911 26.3312 415.614ZM25.3974 415.614C25.3974 413.426 23.7552 411.721 21.5655 411.721C19.3759 411.721 17.7336 413.426 17.7336 415.614C17.7336 417.802 19.3759 419.507 21.5655 419.507C23.7552 419.507 25.3974 417.802 25.3974 415.614Z" fill="#005399"/>
<path d="M31.7407 411.077H32.6423V412.203C33.3185 411.013 34.3811 410.884 34.9929 410.884C36.764 410.884 37.3436 412.075 37.5368 412.525C38.052 411.431 39.018 410.884 40.2095 410.884C41.2077 410.884 41.8517 411.238 42.2381 411.624C42.9787 412.364 43.0109 413.362 43.0109 414.102V420.151H42.1093V414.102C42.1093 413.49 42.0771 412.75 41.5619 412.236C41.1755 411.817 40.6281 411.721 40.2095 411.721C37.7944 411.721 37.7944 414.134 37.7944 414.681V420.151H36.8928V414.327C36.8928 413.748 36.8606 411.721 34.8963 411.721C33.3185 411.721 32.5779 413.104 32.5779 414.906V420.151H31.6763V411.109L31.7407 411.077Z" fill="#005399"/>
<path d="M57.3406 415.71C57.3406 418.027 59.015 419.539 60.947 419.539C62.3961 419.539 63.5231 418.671 64.1027 417.48L64.8433 417.931C64.2959 418.96 63.1045 420.408 60.8826 420.408C58.049 420.408 56.4067 418.317 56.4067 415.678C56.4067 412.525 58.5964 410.916 60.8182 410.916C63.2655 410.916 65.1009 412.879 65.1009 415.743H57.3406V415.71ZM64.1349 414.874C63.9095 413.072 62.5893 411.721 60.786 411.721C58.9828 411.721 57.6304 413.104 57.3728 414.874H64.1349Z" fill="#005399"/>
<path d="M69.5764 411.077L72.7642 418.606L75.9199 411.077H76.8859L72.7642 420.698L68.5781 411.077H69.5442H69.5764Z" fill="#005399"/>
<path d="M81.8127 415.71C81.8127 418.027 83.4872 419.539 85.4192 419.539C86.9004 419.539 87.9953 418.671 88.5749 417.48L89.3155 417.931C88.7681 418.96 87.5767 420.408 85.3548 420.408C82.5211 420.408 80.8789 418.317 80.8789 415.678C80.8789 412.525 83.0686 410.916 85.2904 410.916C87.7377 410.916 89.5731 412.879 89.5731 415.743H81.8127V415.71ZM88.6393 414.874C88.4139 413.072 87.0936 411.721 85.2904 411.721C83.4872 411.721 82.1347 413.104 81.8771 414.874H88.6393Z" fill="#005399"/>
<path d="M94.9829 411.077H95.8845V412.268C96.2065 411.495 96.915 410.884 97.881 410.884C98.1386 410.884 98.4928 410.916 98.847 411.109L98.3962 411.914C98.3962 411.914 98.1386 411.721 97.72 411.721C95.8845 411.721 95.8845 414.134 95.8845 415.26V420.118H94.9829V411.077Z" fill="#005399"/>
<path d="M106.64 420.279L102.325 411.077H103.355L107.155 419.121L110.471 411.077H111.502L105.545 425.234H104.514L106.64 420.279Z" fill="#005399"/>
<path d="M124.994 415.614C124.994 418.284 122.933 420.376 120.228 420.376C117.523 420.376 115.462 418.317 115.462 415.614C115.462 412.911 117.523 410.852 120.228 410.852C122.933 410.852 124.994 412.911 124.994 415.614ZM124.06 415.614C124.06 413.426 122.418 411.721 120.228 411.721C118.038 411.721 116.396 413.426 116.396 415.614C116.396 417.802 118.038 419.507 120.228 419.507C122.418 419.507 124.06 417.802 124.06 415.614Z" fill="#005399"/>
<path d="M130.372 411.077H131.273V412.493C131.692 411.753 132.529 410.884 134.042 410.884C135.652 410.884 136.361 411.849 136.554 412.139C136.941 412.783 137.005 413.619 137.005 414.423V420.118H136.103V414.423C136.103 413.812 136.103 413.104 135.749 412.589C135.556 412.268 135.073 411.689 133.978 411.689C132.722 411.689 132.078 412.364 131.756 412.943C131.37 413.651 131.273 414.488 131.273 415.389V420.086H130.372V411.045V411.077Z" fill="#005399"/>
<path d="M143.348 415.71C143.348 418.027 145.023 419.539 146.955 419.539C148.436 419.539 149.531 418.671 150.111 417.48L150.851 417.931C150.304 418.96 149.112 420.408 146.89 420.408C144.057 420.408 142.415 418.317 142.415 415.678C142.415 412.525 144.604 410.916 146.826 410.916C149.273 410.916 151.109 412.879 151.109 415.743H143.348V415.71ZM150.175 414.874C149.95 413.072 148.629 411.721 146.826 411.721C145.023 411.721 143.67 413.104 143.413 414.874H150.175Z" fill="#005399"/>
<path d="M164.086 408.053C164.086 407.57 164.44 407.216 164.891 407.216C165.342 407.216 165.696 407.538 165.696 408.053C165.696 408.568 165.342 408.889 164.891 408.889C164.44 408.889 164.086 408.568 164.086 408.053ZM165.342 411.077V420.118H164.44V411.077H165.342Z" fill="#005399"/>
<path d="M171.331 411.077H172.233V412.203C172.909 411.013 173.971 410.884 174.583 410.884C176.354 410.884 176.934 412.075 177.127 412.525C177.642 411.431 178.608 410.884 179.8 410.884C180.798 410.884 181.442 411.238 181.828 411.624C182.569 412.364 182.601 413.362 182.601 414.102V420.151H181.7V414.102C181.7 413.49 181.667 412.75 181.152 412.236C180.766 411.817 180.218 411.721 179.8 411.721C177.385 411.721 177.385 414.134 177.385 414.681V420.151H176.483V414.327C176.483 413.748 176.451 411.721 174.487 411.721C172.909 411.721 172.168 413.104 172.168 414.906V420.151H171.267V411.109L171.331 411.077Z" fill="#005399"/>
<path d="M189.492 425.234H188.59V411.077H189.492V412.654C190.361 411.463 191.617 410.884 193.034 410.884C195.771 410.884 197.446 412.911 197.446 415.55C197.446 418.188 195.771 420.376 193.002 420.376C190.748 420.376 189.75 418.96 189.492 418.51V425.234ZM196.512 415.517C196.512 413.04 194.869 411.689 193.002 411.689C191.134 411.689 189.46 412.943 189.46 415.453C189.46 417.705 190.716 419.507 193.002 419.507C195.288 419.507 196.544 417.737 196.544 415.517H196.512Z" fill="#005399"/>
<path d="M211.775 415.614C211.775 418.284 209.714 420.376 207.009 420.376C204.305 420.376 202.244 418.317 202.244 415.614C202.244 412.911 204.305 410.852 207.009 410.852C209.714 410.852 211.775 412.911 211.775 415.614ZM210.841 415.614C210.841 413.426 209.199 411.721 207.009 411.721C204.82 411.721 203.177 413.426 203.177 415.614C203.177 417.802 204.82 419.507 207.009 419.507C209.199 419.507 210.841 417.802 210.841 415.614Z" fill="#005399"/>
<path d="M217.185 411.077H218.086V412.268C218.408 411.495 219.117 410.884 220.083 410.884C220.34 410.884 220.694 410.916 221.049 411.109L220.598 411.914C220.598 411.914 220.34 411.721 219.922 411.721C218.086 411.721 218.086 414.134 218.086 415.26V420.118H217.185V411.077Z" fill="#005399"/>
<path d="M226.684 411.914V420.118H225.782V411.914H224.784V411.077H225.782V407.828H226.684V411.077H228.262V411.914H226.684Z" fill="#005399"/>
<path d="M242.173 413.104V420.151H241.207V405.35H244.072C246.487 405.35 248.42 406.669 248.42 409.211C248.42 411.753 246.681 413.104 244.105 413.104H242.205H242.173ZM242.173 412.203H244.137C246.069 412.203 247.389 411.077 247.389 409.211C247.389 407.345 246.133 406.219 243.976 406.219H242.173V412.203Z" fill="#005399"/>
<path d="M256.341 420.279L252.026 411.077H253.056L256.856 419.121L260.173 411.077H261.203L255.246 425.234H254.216L256.341 420.279Z" fill="#005399"/>
<path d="M278.012 408.342C276.756 406.862 274.921 406.026 273.021 406.026C269.221 406.026 266.387 409.082 266.387 412.815C266.387 417.223 270.058 419.507 273.053 419.507C274.534 419.507 276.531 418.896 278.012 417.255V418.542C276.498 419.861 274.663 420.376 273.085 420.376C268.641 420.376 265.357 416.901 265.357 412.75C265.357 408.6 268.77 405.125 273.053 405.125C275.887 405.125 277.593 406.637 278.012 407.055V408.342Z" fill="#005399"/>
<path d="M292.084 415.614C292.084 418.284 290.023 420.376 287.318 420.376C284.613 420.376 282.552 418.317 282.552 415.614C282.552 412.911 284.613 410.852 287.318 410.852C290.023 410.852 292.084 412.911 292.084 415.614ZM291.15 415.614C291.15 413.426 289.508 411.721 287.318 411.721C285.128 411.721 283.486 413.426 283.486 415.614C283.486 417.802 285.128 419.507 287.318 419.507C289.508 419.507 291.15 417.802 291.15 415.614Z" fill="#005399"/>
<path d="M297.493 411.077H298.395V412.493C298.813 411.753 299.651 410.884 301.164 410.884C302.774 410.884 303.482 411.849 303.676 412.139C304.062 412.783 304.127 413.619 304.127 414.423V420.118H303.225V414.423C303.225 413.812 303.225 413.104 302.871 412.589C302.677 412.268 302.194 411.689 301.1 411.689C299.844 411.689 299.2 412.364 298.878 412.943C298.491 413.651 298.395 414.488 298.395 415.389V420.086H297.493V411.045V411.077Z" fill="#005399"/>
<path d="M312.338 405.318V417.223C312.338 417.898 312.338 418.928 311.597 419.668C311.179 420.086 310.567 420.344 309.762 420.344C309.085 420.344 308.602 420.151 308.152 419.797C307.701 419.411 307.411 418.96 307.282 418.799L307.958 418.22C308.152 418.542 308.377 418.864 308.635 419.057C309.021 419.346 309.407 419.443 309.794 419.443C310.18 419.443 310.599 419.282 310.857 419.025C311.307 418.574 311.339 417.898 311.339 417.351V405.286H312.306L312.338 405.318Z" fill="#005399"/>
<path d="M320.066 413.104V420.151H319.1V405.35H321.966C324.381 405.35 326.313 406.669 326.313 409.211C326.313 411.753 324.574 413.104 321.998 413.104H320.098H320.066ZM320.066 412.203H322.03C323.962 412.203 325.283 411.077 325.283 409.211C325.283 407.345 324.027 406.219 321.869 406.219H320.066V412.203Z" fill="#005399"/>
<path d="M22.016 342.866C18.5061 340.517 14.32 340.228 11.3253 340.228H0.538086V389.102H8.00865V369.25H11.3897C14.9962 369.25 19.4399 368.735 23.3362 365.453C27.3613 362.01 28.1019 357.602 28.1019 354.771C28.1019 350.299 26.1054 345.601 22.016 342.898V342.866ZM11.3897 362.364H8.00865V347.113H11.2931C19.7941 347.113 20.8889 351.94 20.8889 354.642C20.8889 359.179 17.7977 362.332 11.3575 362.332L11.3897 362.364Z" fill="#005399"/>
<path d="M80.9756 345.73C76.8861 349.623 73.1187 355.833 73.1187 364.842C73.1187 371.727 75.2439 377.969 80.9756 383.31C83.8415 386.013 89.4122 390.035 98.2674 390.035C101.648 390.035 106.768 389.295 111.695 386.367V377.519C108.894 380.157 104.353 383.149 98.4928 383.149C88.092 383.149 80.6214 375.17 80.6214 364.842C80.6214 354.514 87.8022 346.245 98.4284 346.245C101.23 346.245 106.285 346.759 111.695 351.65V342.866C107.445 340.163 103.13 339.359 98.6538 339.359C91.8917 339.359 86.0311 340.968 80.9756 345.73Z" fill="#005399"/>
<path d="M136.329 357.442C127.023 357.442 119.842 364.166 119.842 373.69C119.842 383.214 127.023 390.035 136.329 390.035C145.635 390.035 152.815 383.149 152.815 373.69C152.815 364.23 145.635 357.442 136.329 357.442ZM136.329 383.6C130.693 383.6 127.151 379.707 127.151 373.786C127.151 366.74 131.756 363.909 136.329 363.909C140.901 363.909 145.506 366.772 145.506 373.786C145.506 379.707 141.996 383.6 136.329 383.6Z" fill="#005399"/>
<path d="M177.577 357.442C175.806 357.442 172.296 357.667 169.205 361.11V358.246H162.024V389.07H169.205V374.269C169.205 364.295 172.522 363.877 175.742 363.877C178.447 363.877 181.377 364.102 181.377 371.92V389.07H188.558V370.183C188.558 365.421 187.817 363.297 186.658 361.624C185.692 360.305 183.277 357.442 177.577 357.442Z" fill="#005399"/>
<path d="M227.07 371.888C227.07 376.875 226.716 378.613 226.265 379.739C225.009 382.828 222.594 383.021 221.338 383.021C218.698 383.021 217.152 382.055 216.218 381.251L212.547 387.557C214.029 388.523 216.862 390.035 221.209 390.035C227.875 390.035 231.192 386.077 232.705 382.988C234.379 379.61 234.54 375.749 234.54 371.856V340.196H227.07V371.856V371.888Z" fill="#005399"/>
<path d="M269.607 342.866C266.097 340.517 261.911 340.228 258.917 340.228H248.129V389.102H255.6V369.25H258.981C262.588 369.25 267.031 368.735 270.928 365.453C274.953 362.01 275.693 357.602 275.693 354.771C275.693 350.299 273.697 345.601 269.607 342.898V342.866ZM258.981 362.364H255.6V347.113H258.884C267.385 347.113 268.48 351.94 268.48 354.642C268.48 359.179 265.389 362.332 258.949 362.332L258.981 362.364Z" fill="#005399"/>
<path d="M303.064 355.254C304.384 353.709 305.414 352.487 306.187 351.296C307.089 349.977 307.765 348.497 307.765 346.695C307.765 343.285 305.35 340.067 300.681 340.067C297.912 340.067 296.334 341.322 295.529 342.223C294.659 343.188 293.79 344.893 293.693 347.017H296.913C297.042 344.958 298.33 343.027 300.81 343.027C303.289 343.027 304.481 344.732 304.481 346.599C304.481 347.886 303.965 348.851 303.321 349.752C302.581 350.813 301.454 352.261 300.681 353.162L293.082 362.396H307.829V359.308H299.618L303.032 355.254H303.064Z" fill="#005399"/>
<path d="M318.746 340.067C316.814 340.067 315.139 340.871 313.755 342.448C311.436 345.086 310.953 348.593 310.953 351.425C310.953 354.256 311.436 357.731 313.755 360.369C315.139 361.946 316.749 362.75 318.746 362.75C320.742 362.75 322.352 361.946 323.737 360.369C326.055 357.731 326.538 354.288 326.538 351.425C326.538 348.561 326.055 345.054 323.737 342.448C322.352 340.871 320.71 340.067 318.746 340.067ZM321.708 357.989C320.742 359.436 319.615 359.79 318.746 359.79C317.876 359.79 316.749 359.436 315.783 357.989C314.56 356.155 314.27 353.355 314.27 351.393C314.27 349.43 314.56 346.663 315.783 344.829C316.749 343.381 317.876 343.027 318.746 343.027C319.615 343.027 320.742 343.381 321.708 344.829C322.932 346.631 323.222 349.462 323.222 351.393C323.222 353.323 322.932 356.122 321.708 357.989Z" fill="#005399"/>
<path d="M303.064 381.444C304.384 379.9 305.414 378.677 306.187 377.487C307.089 376.167 307.765 374.687 307.765 372.886C307.765 369.475 305.35 366.258 300.681 366.258C297.912 366.258 296.334 367.512 295.529 368.413C294.659 369.379 293.79 371.084 293.693 373.207H296.913C297.042 371.148 298.33 369.218 300.81 369.218C303.289 369.218 304.481 370.923 304.481 372.789C304.481 374.076 303.965 375.041 303.321 375.942C302.581 377.004 301.454 378.452 300.681 379.353L293.082 388.587H307.829V385.498H299.618L303.032 381.444H303.064Z" fill="#005399"/>
<path d="M322.578 381.348V365.003L308.474 384.436H319.357V388.587H322.578V384.436H324.96V381.348H322.578ZM319.357 381.412H314.334L319.357 374.333V381.412Z" fill="#005399"/>
<path d="M50.3205 376.264L41.5297 358.246H32.8677L46.07 384.243L36.3776 402.712H44.3955L67.3224 358.246H59.2723L50.3205 376.264Z" fill="#005399"/>
<path d="M227.328 62.2355H161.703V75.9421H227.328L251.736 87.0746V51.103L227.328 62.2355Z" fill="#DCC91F"/>
<path d="M302.323 173.593H253.281V183.825L302.323 183.857L320.581 192.158V165.26L302.323 173.593Z" fill="#DCC91F"/>
<path d="M205.27 136.367C193.002 136.367 183.116 146.309 183.148 158.568C183.18 168.735 183.309 179.803 183.309 192.995C183.309 236.817 148.822 253.999 120.84 253.999C92.8574 253.999 63.2005 228.773 63.2005 192.995H102.067C114.303 192.995 124.221 183.085 124.189 170.858C124.124 137.01 123.963 107.441 123.963 94.6036C188.204 94.6036 207.073 44.0245 207.073 0.266436H28.5848C16.3807 0.234261 6.46289 10.1442 6.46289 22.3385V192.963C6.46289 260.884 61.3329 311.882 121.065 311.882C196.576 311.882 242.559 257.088 242.559 192.963C271.185 192.963 287.124 162.01 287.124 136.335C261.557 136.27 232.415 136.335 205.302 136.335L205.27 136.367ZM121.194 17.0618C134.364 17.0618 145.023 27.7117 145.023 40.8713C145.023 54.0309 134.364 64.6808 121.194 64.6808C108.024 64.6808 97.3655 54.0309 97.3655 40.8713C97.3655 27.7117 108.024 17.0618 121.194 17.0618ZM237.889 169.829C232.093 169.829 227.424 165.131 227.424 159.372C227.424 153.613 232.126 148.915 237.889 148.915C243.653 148.915 248.355 153.613 248.355 159.372C248.355 165.131 243.653 169.829 237.889 169.829Z" fill="#005399"/>
<path d="M174.937 124.88C181.41 124.88 186.658 119.637 186.658 113.169C186.658 106.7 181.41 101.457 174.937 101.457C168.464 101.457 163.216 106.7 163.216 113.169C163.216 119.637 168.464 124.88 174.937 124.88Z" fill="#005399"/>
</g>
<defs>
<clipPath id="clip0_2612_4404">
<rect width="326" height="425" fill="white" transform="translate(0.538086 0.234253)"/>
</clipPath>
</defs>
</svg>
