<svg width="201" height="43" viewBox="0 0 201 43" fill="none" xmlns="http://www.w3.org/2000/svg">
<g clip-path="url(#clip0_2741_5835)">
<path d="M57.6746 35.4761V39.1376H57.2831V35.4761H56.8325V35.0966H57.2831V33.1765C57.2831 32.0379 57.8667 31.7997 58.3394 31.7997C58.5093 31.7997 58.6127 31.837 58.6866 31.8593V32.2239C58.5906 32.1867 58.5019 32.1718 58.3837 32.1718C58.0366 32.1718 57.6894 32.3207 57.6894 33.2509V35.0966H58.694V35.4761H57.6894H57.6746Z" fill="#005399"/>
<path d="M60.6143 35.104H61.0058V35.6324C61.1536 35.2826 61.4564 35.0147 61.8922 35.0147C62.003 35.0147 62.1655 35.037 62.3133 35.1115L62.1138 35.4687C62.0769 35.4389 61.9956 35.3868 61.8184 35.3868C61.0132 35.3868 60.9984 36.4659 60.9984 36.972V39.1376H60.6069V35.0966L60.6143 35.104Z" fill="#005399"/>
<path d="M68.1489 37.1357C68.1489 38.3339 67.233 39.2567 66.0437 39.2567C64.8544 39.2567 63.9385 38.3339 63.9385 37.1357C63.9385 35.9375 64.8544 35.0147 66.0437 35.0147C67.233 35.0147 68.1489 35.9375 68.1489 37.1357ZM67.7353 37.1357C67.7353 36.1533 67.004 35.3943 66.0437 35.3943C65.0834 35.3943 64.3521 36.1533 64.3521 37.1357C64.3521 38.118 65.076 38.8771 66.0437 38.8771C67.0114 38.8771 67.7353 38.118 67.7353 37.1357Z" fill="#005399"/>
<path d="M70.5425 35.104H70.934V35.6101C71.2368 35.0817 71.7022 35.0147 71.9755 35.0147C72.7585 35.0147 73.0171 35.5357 73.0983 35.744C73.3273 35.2603 73.7557 35.0147 74.2876 35.0147C74.7308 35.0147 75.0189 35.171 75.1888 35.3496C75.5138 35.677 75.5359 36.1236 75.5359 36.451V39.145H75.1444V36.451C75.1444 36.1831 75.1223 35.8482 74.9081 35.6175C74.7308 35.4315 74.4944 35.3868 74.3097 35.3868C73.246 35.3868 73.2387 36.4585 73.2387 36.704V39.1376H72.8472V36.5403C72.8472 36.2799 72.825 35.3794 71.9607 35.3794C71.259 35.3794 70.934 35.9971 70.934 36.7934V39.1301H70.5425V35.0891V35.104Z" fill="#005399"/>
<path d="M81.8589 37.1729C81.8589 38.1999 82.605 38.8771 83.4545 38.8771C84.1045 38.8771 84.592 38.4901 84.8506 37.9543L85.183 38.1552C84.9466 38.6092 84.4147 39.2567 83.4249 39.2567C82.1765 39.2567 81.4526 38.3264 81.4526 37.1506C81.4526 35.744 82.4129 35.0222 83.3954 35.0222C84.4738 35.0222 85.2938 35.8929 85.2938 37.1803H81.8663L81.8589 37.1729ZM84.8801 36.7934C84.7767 35.9896 84.1931 35.3868 83.3954 35.3868C82.5976 35.3868 81.9993 36.0119 81.8885 36.7934H84.8801Z" fill="#005399"/>
<path d="M87.281 35.104L88.6992 38.4604L90.0953 35.104H90.5312L88.6992 39.3906L86.8525 35.104H87.2884H87.281Z" fill="#005399"/>
<path d="M92.7027 37.1729C92.7027 38.1999 93.4488 38.8771 94.2983 38.8771C94.9483 38.8771 95.4358 38.4901 95.6944 37.9543L96.0268 38.1552C95.7904 38.6092 95.2586 39.2567 94.2687 39.2567C93.0204 39.2567 92.2891 38.3264 92.2891 37.1506C92.2891 35.744 93.2567 35.0222 94.2318 35.0222C95.3103 35.0222 96.1302 35.8929 96.1302 37.1803H92.6953L92.7027 37.1729ZM95.7165 36.7934C95.6205 35.9896 95.0296 35.3868 94.2318 35.3868C93.434 35.3868 92.8357 36.0119 92.7249 36.7934H95.7165Z" fill="#005399"/>
<path d="M98.5235 35.104H98.915V35.6324C99.0627 35.2826 99.3656 35.0147 99.8014 35.0147C99.9122 35.0147 100.075 35.037 100.222 35.1115L100.023 35.4687C99.9861 35.4389 99.9048 35.3868 99.7275 35.3868C98.9224 35.3868 98.9076 36.4659 98.9076 36.972V39.1376H98.5161V35.0966L98.5235 35.104Z" fill="#005399"/>
<path d="M103.687 39.212L101.781 35.104H102.232L103.916 38.6985L105.379 35.104H105.829L103.192 41.4223H102.742L103.687 39.212Z" fill="#005399"/>
<path d="M111.805 37.1357C111.805 38.3339 110.889 39.2567 109.7 39.2567C108.511 39.2567 107.595 38.3339 107.595 37.1357C107.595 35.9375 108.511 35.0147 109.7 35.0147C110.889 35.0147 111.805 35.9375 111.805 37.1357ZM111.392 37.1357C111.392 36.1533 110.66 35.3943 109.7 35.3943C108.74 35.3943 108.008 36.1533 108.008 37.1357C108.008 38.118 108.732 38.8771 109.7 38.8771C110.668 38.8771 111.392 38.118 111.392 37.1357Z" fill="#005399"/>
<path d="M114.191 35.104H114.582V35.7366C114.767 35.4017 115.129 35.0147 115.809 35.0147C116.525 35.0147 116.828 35.4389 116.917 35.5803C117.094 35.8705 117.116 36.2426 117.116 36.5999V39.145H116.725V36.5999C116.725 36.3245 116.717 36.0119 116.569 35.7887C116.481 35.6398 116.267 35.3943 115.779 35.3943C115.232 35.3943 114.944 35.6919 114.797 35.9598C114.619 36.2799 114.582 36.652 114.582 37.0464V39.145H114.191V35.104Z" fill="#005399"/>
<path d="M119.93 37.1729C119.93 38.1999 120.676 38.8771 121.526 38.8771C122.176 38.8771 122.663 38.4901 122.922 37.9543L123.254 38.1552C123.018 38.6092 122.486 39.2567 121.496 39.2567C120.248 39.2567 119.517 38.3264 119.517 37.1506C119.517 35.744 120.484 35.0222 121.459 35.0222C122.538 35.0222 123.358 35.8929 123.358 37.1803H119.923L119.93 37.1729ZM122.944 36.7934C122.848 35.9896 122.257 35.3868 121.459 35.3868C120.662 35.3868 120.063 36.0119 119.952 36.7934H122.944Z" fill="#005399"/>
<path d="M129.112 33.757C129.112 33.5412 129.267 33.3923 129.467 33.3923C129.666 33.3923 129.821 33.5412 129.821 33.757C129.821 33.9728 129.666 34.1217 129.467 34.1217C129.267 34.1217 129.112 33.9728 129.112 33.757ZM129.666 35.104V39.145H129.275V35.104H129.666Z" fill="#005399"/>
<path d="M132.311 35.104H132.702V35.6101C133.005 35.0817 133.47 35.0147 133.744 35.0147C134.527 35.0147 134.785 35.5357 134.866 35.744C135.095 35.2603 135.524 35.0147 136.056 35.0147C136.499 35.0147 136.787 35.171 136.957 35.3496C137.282 35.677 137.304 36.1236 137.304 36.451V39.145H136.913V36.451C136.913 36.1831 136.89 35.8482 136.676 35.6175C136.499 35.4315 136.262 35.3868 136.078 35.3868C135.014 35.3868 135.007 36.4585 135.007 36.704V39.1376H134.615V36.5403C134.615 36.2799 134.593 35.3794 133.729 35.3794C133.027 35.3794 132.702 35.9971 132.702 36.7934V39.1301H132.311V35.0891V35.104Z" fill="#005399"/>
<path d="M140.348 41.4223H139.956V35.104H140.348V35.8036C140.732 35.2752 141.278 35.0147 141.921 35.0147C143.132 35.0147 143.864 35.9226 143.864 37.091C143.864 38.2594 143.118 39.2492 141.899 39.2492C140.909 39.2492 140.466 38.6166 140.348 38.4157V41.4148V41.4223ZM143.457 37.091C143.457 35.9822 142.726 35.3868 141.906 35.3868C141.086 35.3868 140.333 35.9524 140.333 37.0687C140.333 38.0808 140.879 38.8697 141.891 38.8697C142.903 38.8697 143.457 38.0808 143.457 37.0836V37.091Z" fill="#005399"/>
<path d="M150.209 37.1357C150.209 38.3339 149.293 39.2567 148.104 39.2567C146.915 39.2567 145.999 38.3339 145.999 37.1357C145.999 35.9375 146.915 35.0147 148.104 35.0147C149.293 35.0147 150.209 35.9375 150.209 37.1357ZM149.795 37.1357C149.795 36.1533 149.064 35.3943 148.104 35.3943C147.143 35.3943 146.412 36.1533 146.412 37.1357C146.412 38.118 147.136 38.8771 148.104 38.8771C149.071 38.8771 149.795 38.118 149.795 37.1357Z" fill="#005399"/>
<path d="M152.602 35.104H152.994V35.6324C153.141 35.2826 153.444 35.0147 153.88 35.0147C153.991 35.0147 154.153 35.037 154.301 35.1115L154.102 35.4687C154.065 35.4389 153.983 35.3868 153.806 35.3868C153.001 35.3868 152.986 36.4659 152.986 36.972V39.1376H152.595V35.0966L152.602 35.104Z" fill="#005399"/>
<path d="M156.813 35.4761V39.1376H156.421V35.4761H155.978V35.0966H156.421V33.6528H156.813V35.0966H157.514V35.4761H156.813Z" fill="#005399"/>
<path d="M163.66 36.0045V39.145H163.225V32.5365H164.495C165.566 32.5365 166.416 33.1319 166.416 34.263C166.416 35.3942 165.64 36.0045 164.51 36.0045H163.668H163.66ZM163.66 35.6101H164.525C165.382 35.6101 165.958 35.104 165.958 34.2705C165.958 33.437 165.411 32.9309 164.451 32.9309H163.653V35.6026L163.66 35.6101Z" fill="#005399"/>
<path d="M169.946 39.212L168.041 35.104H168.491L170.175 38.6985L171.638 35.104H172.088L169.451 41.4223H169.001L169.946 39.212Z" fill="#005399"/>
<path d="M179.534 33.8835C178.973 33.2212 178.168 32.8416 177.326 32.8416C175.641 32.8416 174.386 34.1961 174.386 35.8705C174.386 37.8352 176.011 38.8548 177.333 38.8548C177.99 38.8548 178.869 38.5869 179.534 37.8575V38.4306C178.862 39.0259 178.057 39.2492 177.355 39.2492C175.39 39.2492 173.935 37.6938 173.935 35.8482C173.935 34.0026 175.449 32.4398 177.34 32.4398C178.589 32.4398 179.35 33.117 179.542 33.303V33.8761L179.534 33.8835Z" fill="#005399"/>
<path d="M185.747 37.1357C185.747 38.3339 184.831 39.2567 183.641 39.2567C182.452 39.2567 181.536 38.3339 181.536 37.1357C181.536 35.9375 182.452 35.0147 183.641 35.0147C184.831 35.0147 185.747 35.9375 185.747 37.1357ZM185.333 37.1357C185.333 36.1533 184.609 35.3943 183.641 35.3943C182.674 35.3943 181.95 36.1533 181.95 37.1357C181.95 38.118 182.681 38.8771 183.641 38.8771C184.602 38.8771 185.333 38.118 185.333 37.1357Z" fill="#005399"/>
<path d="M188.14 35.104H188.532V35.7366C188.716 35.4017 189.086 35.0147 189.758 35.0147C190.474 35.0147 190.777 35.4389 190.866 35.5803C191.043 35.8705 191.065 36.2426 191.065 36.5999V39.145H190.674V36.5999C190.674 36.3245 190.666 36.0119 190.519 35.7887C190.43 35.6398 190.216 35.3943 189.736 35.3943C189.182 35.3943 188.901 35.6919 188.753 35.9598C188.576 36.2799 188.539 36.652 188.539 37.0464V39.145H188.148V35.104H188.14Z" fill="#005399"/>
<path d="M194.714 32.5365V37.8575C194.714 38.1627 194.7 38.6166 194.389 38.9441C194.205 39.1301 193.939 39.2492 193.569 39.2492C193.267 39.2492 193.06 39.1673 192.853 39.0036C192.646 38.8324 192.52 38.639 192.469 38.5571L192.772 38.2966C192.853 38.4455 192.956 38.5869 193.074 38.6762C193.244 38.8027 193.422 38.8548 193.584 38.8548C193.761 38.8548 193.939 38.7878 194.057 38.6687C194.264 38.4603 194.271 38.1701 194.271 37.9245V32.5365H194.707H194.714Z" fill="#005399"/>
<path d="M198.142 36.0045V39.145H197.706V32.5365H198.977C200.048 32.5365 200.897 33.1319 200.897 34.263C200.897 35.3942 200.122 36.0045 198.991 36.0045H198.142ZM198.142 35.6101H199.006C199.863 35.6101 200.439 35.104 200.439 34.2705C200.439 33.437 199.885 32.9309 198.932 32.9309H198.134V35.6026L198.142 35.6101Z" fill="#005399"/>
<path d="M66.2358 4.66613C64.6772 3.61681 62.8305 3.4903 61.5009 3.4903H56.729V25.2954H60.0383V16.4394H61.5304C63.1186 16.4394 65.0982 16.2087 66.8194 14.7426C68.607 13.2096 68.932 11.2449 68.932 9.9723C68.932 7.97783 68.0529 5.88663 66.2358 4.67358V4.66613ZM61.5304 13.3659H60.0383V6.56385H61.5009C65.2681 6.56385 65.7483 8.72204 65.7483 9.92764C65.7483 11.9519 64.3891 13.3584 61.5304 13.3584V13.3659Z" fill="#005399"/>
<path d="M92.3185 5.94618C90.5013 7.68017 88.8467 10.456 88.8467 14.4747C88.8467 17.5483 89.7848 20.3242 92.3185 22.7131C93.5816 23.9261 96.0488 25.7196 99.9786 25.7196C101.471 25.7196 103.738 25.3922 105.918 24.0824V20.1307C104.684 21.3065 102.675 22.6461 100.075 22.6461C95.4652 22.6461 92.156 19.0813 92.156 14.4747C92.156 9.86813 95.3323 6.16944 100.038 6.16944C101.271 6.16944 103.509 6.40014 105.91 8.5881V4.66615C104.027 3.4531 102.113 3.09589 100.134 3.09589C97.1494 3.09589 94.5493 3.81776 92.3111 5.93874L92.3185 5.94618Z" fill="#005399"/>
<path d="M116.821 11.1705C112.699 11.1705 109.522 14.177 109.522 18.4264C109.522 22.6758 112.699 25.7196 116.821 25.7196C120.942 25.7196 124.119 22.6461 124.119 18.4264C124.119 14.2068 120.942 11.1705 116.821 11.1705ZM116.821 22.847C114.324 22.847 112.765 21.113 112.765 18.4637C112.765 15.3231 114.811 14.0505 116.821 14.0505C118.83 14.0505 120.876 15.3231 120.876 18.4637C120.876 21.113 119.317 22.847 116.821 22.847Z" fill="#005399"/>
<path d="M135.088 11.1705C134.312 11.1705 132.754 11.2672 131.387 12.8077V11.5351H128.211V25.2954H131.387V18.6944C131.387 14.2515 132.85 14.0505 134.275 14.0505C135.48 14.0505 136.772 14.1473 136.772 17.645V25.2954H139.949V16.8636C139.949 14.7426 139.624 13.7901 139.106 13.0384C138.685 12.4505 137.614 11.1779 135.081 11.1779L135.088 11.1705Z" fill="#005399"/>
<path d="M156.983 17.6153C156.983 19.8404 156.82 20.6218 156.628 21.113C156.074 22.4823 155.01 22.5865 154.456 22.5865C153.289 22.5865 152.61 22.1623 152.189 21.8051L150.563 24.6182C151.214 25.0424 152.477 25.7271 154.39 25.7271C157.345 25.7271 158.8 23.9633 159.487 22.5865C160.233 21.0832 160.299 19.3492 160.299 17.6153V3.4903H156.99V17.6078L156.983 17.6153Z" fill="#005399"/>
<path d="M175.804 4.66613C174.246 3.61681 172.399 3.4903 171.069 3.4903H166.297V25.2954H169.607V16.4394H171.099C172.687 16.4394 174.667 16.2087 176.388 14.7426C178.175 13.2096 178.5 11.2449 178.5 9.9723C178.5 7.97783 177.621 5.88663 175.804 4.67358V4.66613ZM171.099 13.3659H169.607V6.56385H171.069C174.836 6.56385 175.317 8.72204 175.317 9.92764C175.317 11.9519 173.957 13.3584 171.099 13.3584V13.3659Z" fill="#005399"/>
<path d="M190.615 10.1956C191.198 9.50347 191.649 8.9602 192.003 8.43182C192.395 7.8439 192.705 7.18156 192.705 6.37782C192.705 4.85221 191.641 3.42334 189.566 3.42334C188.339 3.42334 187.638 3.98149 187.291 4.37592C186.914 4.80011 186.515 5.56664 186.471 6.51922H187.904C187.963 5.59641 188.531 4.74058 189.625 4.74058C190.718 4.74058 191.242 5.50711 191.242 6.32573C191.242 6.89876 191.006 7.32296 190.733 7.73971C190.415 8.20856 189.898 8.85602 189.566 9.26533L186.197 13.3808H192.735V11.9965H189.1L190.615 10.1881V10.1956Z" fill="#005399"/>
<path d="M197.558 3.41589C196.701 3.41589 195.97 3.76567 195.357 4.47266C194.337 5.6485 194.116 7.21877 194.116 8.48391C194.116 9.74905 194.337 11.3044 195.357 12.4803C195.97 13.1873 196.686 13.537 197.558 13.537C198.43 13.537 199.146 13.1873 199.759 12.4803C200.779 11.3044 201 9.76394 201 8.48391C201 7.20388 200.779 5.6485 199.759 4.47266C199.146 3.76567 198.415 3.41589 197.558 3.41589ZM198.873 11.4086C198.452 12.0561 197.942 12.2198 197.558 12.2198C197.174 12.2198 196.672 12.0561 196.243 11.4086C195.704 10.5826 195.571 9.33974 195.571 8.46903C195.571 7.59831 195.704 6.35549 196.243 5.54431C196.664 4.89686 197.174 4.73313 197.558 4.73313C197.942 4.73313 198.444 4.89686 198.873 5.54431C199.412 6.35549 199.545 7.61319 199.545 8.46903C199.545 9.32486 199.412 10.5826 198.873 11.4086Z" fill="#005399"/>
<path d="M190.615 21.8795C191.198 21.1874 191.649 20.6442 192.003 20.1158C192.395 19.5279 192.705 18.8655 192.705 18.0618C192.705 16.5362 191.641 15.1073 189.566 15.1073C188.339 15.1073 187.638 15.6655 187.291 16.0599C186.914 16.4841 186.515 17.2506 186.471 18.2032H187.904C187.963 17.2804 188.531 16.4245 189.625 16.4245C190.718 16.4245 191.242 17.1911 191.242 18.0097C191.242 18.5827 191.006 19.0069 190.733 19.4237C190.415 19.8925 189.898 20.54 189.566 20.9493L186.197 25.0647H192.735V23.6805H189.1L190.615 21.8721V21.8795Z" fill="#005399"/>
<path d="M199.257 21.8349V14.5491L193.015 23.2191H197.831V25.0722H199.257V23.2191H200.306V21.8349H199.257ZM197.824 21.8646H195.608L197.824 18.7018V21.8646Z" fill="#005399"/>
<path d="M78.7563 19.5725L74.8635 11.5352H71.0371L76.8801 23.1373L72.5809 31.3756H76.134L86.2834 11.5352H82.7156L78.7563 19.5725Z" fill="#005399"/>
<path d="M31.1043 8.55088L22.1294 8.55832V10.4412L31.1043 10.4486L34.4506 11.9817V7.01782L31.1043 8.55088Z" fill="#DCC91F"/>
<path d="M41.3644 23.9187H34.6572V25.3326H41.3644L43.8685 26.4787V22.7726L41.3644 23.9187Z" fill="#DCC91F"/>
<path d="M28.0903 18.7762C26.4135 18.7762 25.0617 20.1455 25.0617 21.8349C25.0617 23.2414 25.0839 24.7596 25.0839 26.5829C25.0839 32.6333 20.3637 34.9998 16.5374 34.9998C12.711 34.9998 8.64828 31.517 8.64828 26.5829H13.9668C15.6436 26.5829 16.9953 25.2136 16.9953 23.5242C16.988 18.8581 16.9658 14.7724 16.9658 13.0012C25.7561 13.0012 28.3414 6.02059 28.3414 -0.0148926H3.91335C2.24393 -8.53464e-06 0.884766 1.36932 0.884766 3.05122V26.5903C0.884766 35.9598 8.39712 43 16.5669 43C26.901 43 33.1872 35.4389 33.1872 26.5903C37.1022 26.5903 39.2887 22.3186 39.2887 18.7762C35.7873 18.7688 31.8058 18.7762 28.0903 18.7762ZM16.5817 2.3219C18.3841 2.3219 19.8466 3.79542 19.8466 5.61128C19.8466 7.42713 18.3841 8.90065 16.5817 8.90065C14.7793 8.90065 13.3167 7.42713 13.3167 5.61128C13.3167 3.79542 14.7793 2.3219 16.5817 2.3219ZM32.5519 23.3977C31.7615 23.3977 31.1189 22.7503 31.1189 21.954C31.1189 21.1577 31.7615 20.5102 32.5519 20.5102C33.3423 20.5102 33.9849 21.1577 33.9849 21.954C33.9849 22.7503 33.3423 23.3977 32.5519 23.3977Z" fill="#005399"/>
<path d="M23.9389 17.1985C24.8241 17.1985 25.5418 16.4755 25.5418 15.5836C25.5418 14.6917 24.8241 13.9687 23.9389 13.9687C23.0536 13.9687 22.3359 14.6917 22.3359 15.5836C22.3359 16.4755 23.0536 17.1985 23.9389 17.1985Z" fill="#005399"/>
</g>
<defs>
<clipPath id="clip0_2741_5835">
<rect width="200.115" height="43" fill="white" transform="translate(0.884766)"/>
</clipPath>
</defs>
</svg>
