<svg width="317" height="68" viewBox="0 0 317 68" fill="none" xmlns="http://www.w3.org/2000/svg">
<g clip-path="url(#clip0_2741_7231)">
<path d="M89.9599 56.1019V61.8921H89.3398V56.1019H88.626V55.5017H89.3398V52.4653C89.3398 50.6647 90.2642 50.2881 91.013 50.2881C91.2822 50.2881 91.446 50.3469 91.563 50.3822V50.9589C91.4109 50.9001 91.2705 50.8765 91.0832 50.8765C90.5333 50.8765 89.9833 51.1119 89.9833 52.583V55.5017H91.5747V56.1019H89.9833H89.9599Z" fill="white"/>
<path d="M94.6172 55.5133H95.2373V56.3489C95.4714 55.7957 95.9511 55.3721 96.6415 55.3721C96.817 55.3721 97.0744 55.4074 97.3085 55.5251L96.9925 56.09C96.934 56.0429 96.8053 55.9605 96.5245 55.9605C95.249 55.9605 95.2256 57.667 95.2256 58.4673V61.892H94.6055V55.5015L94.6172 55.5133Z" fill="white"/>
<path d="M106.553 58.7262C106.553 60.6209 105.102 62.0803 103.218 62.0803C101.334 62.0803 99.8828 60.6209 99.8828 58.7262C99.8828 56.8314 101.334 55.3721 103.218 55.3721C105.102 55.3721 106.553 56.8314 106.553 58.7262ZM105.897 58.7262C105.897 57.1727 104.739 55.9723 103.218 55.9723C101.697 55.9723 100.538 57.1727 100.538 58.7262C100.538 60.2797 101.685 61.4801 103.218 61.4801C104.751 61.4801 105.897 60.2797 105.897 58.7262Z" fill="white"/>
<path d="M110.344 55.5133H110.964V56.3136C111.444 55.478 112.181 55.3721 112.614 55.3721C113.854 55.3721 114.264 56.1959 114.392 56.5254C114.755 55.7604 115.434 55.3721 116.276 55.3721C116.978 55.3721 117.435 55.6192 117.704 55.9017C118.219 56.4195 118.254 57.1256 118.254 57.6434V61.9037H117.634V57.6434C117.634 57.2198 117.599 56.6902 117.259 56.3253C116.978 56.0311 116.604 55.9605 116.311 55.9605C114.626 55.9605 114.615 57.6552 114.615 58.0436V61.892H113.995V57.7847C113.995 57.3728 113.959 55.9487 112.59 55.9487C111.479 55.9487 110.964 56.9255 110.964 58.1848V61.8802H110.344V55.4898V55.5133Z" fill="white"/>
<path d="M128.27 58.785C128.27 60.4091 129.452 61.48 130.798 61.48C131.827 61.48 132.6 60.868 133.009 60.0207L133.536 60.3384C133.161 61.0563 132.319 62.0802 130.751 62.0802C128.773 62.0802 127.626 60.6091 127.626 58.7497C127.626 56.5254 129.148 55.3838 130.704 55.3838C132.412 55.3838 133.711 56.7607 133.711 58.7967H128.282L128.27 58.785ZM133.056 58.1848C132.892 56.9137 131.968 55.9605 130.704 55.9605C129.44 55.9605 128.492 56.949 128.317 58.1848H133.056Z" fill="white"/>
<path d="M136.859 55.5137L139.106 60.8214L141.317 55.5137H142.007L139.106 62.2925L136.18 55.5137H136.871H136.859Z" fill="white"/>
<path d="M145.447 58.785C145.447 60.4091 146.629 61.48 147.975 61.48C149.004 61.48 149.777 60.868 150.186 60.0207L150.713 60.3384C150.338 61.0563 149.496 62.0802 147.928 62.0802C145.95 62.0802 144.792 60.6091 144.792 58.7497C144.792 56.5254 146.325 55.3838 147.869 55.3838C149.578 55.3838 150.877 56.7607 150.877 58.7967H145.436L145.447 58.785ZM150.221 58.1848C150.069 56.9137 149.133 55.9605 147.869 55.9605C146.606 55.9605 145.658 56.949 145.482 58.1848H150.221Z" fill="white"/>
<path d="M154.668 55.5133H155.288V56.3489C155.522 55.7957 156.002 55.3721 156.692 55.3721C156.868 55.3721 157.125 55.4074 157.359 55.5251L157.043 56.09C156.985 56.0429 156.856 55.9605 156.575 55.9605C155.3 55.9605 155.276 57.667 155.276 58.4673V61.892H154.656V55.5015L154.668 55.5133Z" fill="white"/>
<path d="M162.848 62.01L159.829 55.5137H160.542L163.21 61.198L165.527 55.5137H166.241L162.064 65.5054H161.35L162.848 62.01Z" fill="white"/>
<path d="M175.707 58.7262C175.707 60.6209 174.256 62.0803 172.372 62.0803C170.488 62.0803 169.037 60.6209 169.037 58.7262C169.037 56.8314 170.488 55.3721 172.372 55.3721C174.256 55.3721 175.707 56.8314 175.707 58.7262ZM175.052 58.7262C175.052 57.1727 173.893 55.9723 172.372 55.9723C170.851 55.9723 169.692 57.1727 169.692 58.7262C169.692 60.2797 170.839 61.4801 172.372 61.4801C173.905 61.4801 175.052 60.2797 175.052 58.7262Z" fill="white"/>
<path d="M179.487 55.5133H180.107V56.5136C180.4 55.984 180.973 55.3721 182.049 55.3721C183.184 55.3721 183.664 56.0429 183.805 56.2665C184.085 56.7255 184.121 57.3139 184.121 57.8788V61.9037H183.5V57.8788C183.5 57.4434 183.489 56.9491 183.255 56.596C183.114 56.3606 182.775 55.9723 182.003 55.9723C181.137 55.9723 180.68 56.443 180.446 56.8667C180.166 57.3728 180.107 57.9612 180.107 58.5849V61.9037H179.487V55.5133Z" fill="white"/>
<path d="M188.579 58.785C188.579 60.4091 189.76 61.48 191.106 61.48C192.136 61.48 192.908 60.868 193.318 60.0207L193.844 60.3384C193.47 61.0563 192.627 62.0802 191.059 62.0802C189.082 62.0802 187.923 60.6091 187.923 58.7497C187.923 56.5254 189.456 55.3838 191.001 55.3838C192.709 55.3838 194.008 56.7607 194.008 58.7967H188.567L188.579 58.785ZM193.353 58.1848C193.201 56.9137 192.265 55.9605 191.001 55.9605C189.737 55.9605 188.789 56.949 188.614 58.1848H193.353Z" fill="white"/>
<path d="M203.123 53.3833C203.123 53.042 203.369 52.8066 203.685 52.8066C204.001 52.8066 204.246 53.042 204.246 53.3833C204.246 53.7246 204.001 53.96 203.685 53.96C203.369 53.96 203.123 53.7246 203.123 53.3833ZM204.001 55.5135V61.9039H203.38V55.5135H204.001Z" fill="white"/>
<path d="M208.19 55.5133H208.81V56.3136C209.29 55.478 210.027 55.3721 210.46 55.3721C211.7 55.3721 212.11 56.1959 212.239 56.5254C212.601 55.7604 213.28 55.3721 214.123 55.3721C214.825 55.3721 215.281 55.6192 215.55 55.9017C216.065 56.4195 216.1 57.1256 216.1 57.6434V61.9037H215.48V57.6434C215.48 57.2198 215.445 56.6902 215.105 56.3253C214.825 56.0311 214.45 55.9605 214.158 55.9605C212.473 55.9605 212.461 57.6552 212.461 58.0436V61.892H211.841V57.7847C211.841 57.3728 211.806 55.9487 210.437 55.9487C209.325 55.9487 208.81 56.9255 208.81 58.1848V61.8802H208.19V55.4898V55.5133Z" fill="white"/>
<path d="M220.921 65.505H220.301V55.5133H220.921V56.6196C221.529 55.784 222.395 55.3721 223.413 55.3721C225.332 55.3721 226.491 56.8079 226.491 58.6556C226.491 60.5033 225.309 62.0685 223.378 62.0685C221.81 62.0685 221.108 61.0682 220.921 60.7504V65.4932V65.505ZM225.847 58.6556C225.847 56.902 224.689 55.9605 223.39 55.9605C222.091 55.9605 220.898 56.8549 220.898 58.6203C220.898 60.2208 221.763 61.4683 223.367 61.4683C224.97 61.4683 225.847 60.2208 225.847 58.6438V58.6556Z" fill="white"/>
<path d="M236.542 58.7262C236.542 60.6209 235.091 62.0803 233.207 62.0803C231.324 62.0803 229.873 60.6209 229.873 58.7262C229.873 56.8314 231.324 55.3721 233.207 55.3721C235.091 55.3721 236.542 56.8314 236.542 58.7262ZM235.887 58.7262C235.887 57.1727 234.729 55.9723 233.207 55.9723C231.686 55.9723 230.528 57.1727 230.528 58.7262C230.528 60.2797 231.675 61.4801 233.207 61.4801C234.74 61.4801 235.887 60.2797 235.887 58.7262Z" fill="white"/>
<path d="M240.333 55.5133H240.954V56.3489C241.188 55.7957 241.667 55.3721 242.358 55.3721C242.533 55.3721 242.791 55.4074 243.025 55.5251L242.709 56.09C242.65 56.0429 242.522 55.9605 242.241 55.9605C240.965 55.9605 240.942 57.667 240.942 58.4673V61.892H240.322V55.5015L240.333 55.5133Z" fill="white"/>
<path d="M247.003 56.1021V61.8923H246.383V56.1021H245.681V55.5019H246.383V53.2188H247.003V55.5019H248.115V56.1021H247.003Z" fill="white"/>
<path d="M257.85 56.9374V61.9038H257.16V51.4531H259.172C260.869 51.4531 262.215 52.3946 262.215 54.1835C262.215 55.9723 260.986 56.9374 259.196 56.9374H257.862H257.85ZM257.85 56.3136H259.219C260.576 56.3136 261.489 55.5134 261.489 54.1952C261.489 52.8771 260.623 52.0769 259.102 52.0769H257.838V56.3019L257.85 56.3136Z" fill="white"/>
<path d="M267.808 62.01L264.789 55.5137H265.503L268.171 61.198L270.488 55.5137H271.201L267.024 65.5054H266.31L267.808 62.01Z" fill="white"/>
<path d="M282.997 53.5829C282.107 52.5355 280.832 51.9353 279.498 51.9353C276.83 51.9353 274.841 54.0772 274.841 56.7252C274.841 59.8322 277.415 61.4445 279.51 61.4445C280.551 61.4445 281.943 61.0208 282.997 59.8675V60.7737C281.932 61.7152 280.656 62.0682 279.545 62.0682C276.432 62.0682 274.127 59.6086 274.127 56.6899C274.127 53.7712 276.526 51.2998 279.521 51.2998C281.499 51.2998 282.704 52.3708 283.008 52.665V53.5712L282.997 53.5829Z" fill="white"/>
<path d="M292.837 58.7262C292.837 60.6209 291.386 62.0803 289.502 62.0803C287.618 62.0803 286.167 60.6209 286.167 58.7262C286.167 56.8314 287.618 55.3721 289.502 55.3721C291.386 55.3721 292.837 56.8314 292.837 58.7262ZM292.182 58.7262C292.182 57.1727 291.035 55.9723 289.502 55.9723C287.969 55.9723 286.823 57.1727 286.823 58.7262C286.823 60.2797 287.981 61.4801 289.502 61.4801C291.024 61.4801 292.182 60.2797 292.182 58.7262Z" fill="white"/>
<path d="M296.628 55.5133H297.249V56.5136C297.541 55.984 298.126 55.3721 299.191 55.3721C300.326 55.3721 300.806 56.0429 300.946 56.2665C301.227 56.7255 301.262 57.3139 301.262 57.8788V61.9037H300.642V57.8788C300.642 57.4434 300.63 56.9491 300.396 56.596C300.256 56.3606 299.916 55.9723 299.156 55.9723C298.278 55.9723 297.834 56.443 297.6 56.8667C297.319 57.3728 297.26 57.9612 297.26 58.5849V61.9037H296.64V55.5133H296.628Z" fill="white"/>
<path d="M307.043 51.4531V59.8678C307.043 60.3503 307.019 61.0682 306.528 61.586C306.235 61.8803 305.814 62.0686 305.229 62.0686C304.749 62.0686 304.421 61.9391 304.094 61.6802C303.766 61.4095 303.567 61.1035 303.485 60.9741L303.965 60.5622C304.094 60.7975 304.258 61.0211 304.445 61.1624C304.714 61.3624 304.995 61.4448 305.252 61.4448C305.533 61.4448 305.814 61.3389 306.001 61.1506C306.329 60.8211 306.34 60.3621 306.34 59.9737V51.4531H307.031H307.043Z" fill="white"/>
<path d="M312.472 56.9374V61.9038H311.782V51.4531H313.794C315.491 51.4531 316.837 52.3946 316.837 54.1835C316.837 55.9723 315.608 56.9374 313.818 56.9374H312.472ZM312.472 56.3136H313.841C315.198 56.3136 316.111 55.5134 316.111 54.1952C316.111 52.8771 315.234 52.0769 313.724 52.0769H312.46V56.3019L312.472 56.3136Z" fill="white"/>
<path d="M103.521 7.379C101.053 5.7196 98.1272 5.51953 96.021 5.51953H88.4619V40.0021H93.7041V25.9972H96.0678C98.5835 25.9972 101.719 25.6324 104.446 23.3139C107.278 20.8896 107.792 17.7826 107.792 15.7701C107.792 12.6161 106.4 9.30908 103.521 7.39077V7.379ZM96.0678 21.1367H93.7041V10.38H96.021C101.989 10.38 102.749 13.793 102.749 15.6995C102.749 18.9006 100.596 21.1249 96.0678 21.1249V21.1367Z" fill="white"/>
<path d="M144.839 9.40295C141.96 12.1451 139.339 16.5348 139.339 22.89C139.339 27.7505 140.825 32.1402 144.839 35.918C146.84 37.8363 150.748 40.6726 156.973 40.6726C159.337 40.6726 162.929 40.1548 166.381 38.0835V31.8342C164.427 33.6937 161.244 35.8121 157.125 35.8121C149.824 35.8121 144.582 30.1748 144.582 22.89C144.582 15.6051 149.613 9.75601 157.067 9.75601C159.021 9.75601 162.566 10.1208 166.369 13.5809V7.37872C163.386 5.46041 160.355 4.89551 157.219 4.89551C152.492 4.89551 148.373 6.03708 144.827 9.39118L144.839 9.40295Z" fill="white"/>
<path d="M183.652 17.665C177.123 17.665 172.091 22.4196 172.091 29.1396C172.091 35.8596 177.123 40.673 183.652 40.673C190.182 40.673 195.213 35.8125 195.213 29.1396C195.213 22.4667 190.182 17.665 183.652 17.665ZM183.652 36.1303C179.697 36.1303 177.228 33.3881 177.228 29.1984C177.228 24.232 180.469 22.2196 183.652 22.2196C186.835 22.2196 190.076 24.232 190.076 29.1984C190.076 33.3881 187.607 36.1303 183.652 36.1303Z" fill="white"/>
<path d="M212.589 17.665C211.361 17.665 208.892 17.818 206.727 20.2542V18.2417H201.695V40.0022H206.727V29.5633C206.727 22.5373 209.044 22.2196 211.302 22.2196C213.209 22.2196 215.257 22.3725 215.257 27.9039V40.0022H220.289V26.6682C220.289 23.3141 219.774 21.8076 218.955 20.619C218.288 19.6893 216.591 17.6768 212.578 17.6768L212.589 17.665Z" fill="white"/>
<path d="M247.272 27.8567C247.272 31.3755 247.015 32.6113 246.71 33.388C245.833 35.5535 244.148 35.7182 243.27 35.7182C241.421 35.7182 240.345 35.0474 239.678 34.4825L237.104 38.9311C238.133 39.6019 240.134 40.6846 243.165 40.6846C247.845 40.6846 250.15 37.8954 251.239 35.7182C252.421 33.3409 252.526 30.5988 252.526 27.8567V5.51953H247.284V27.8449L247.272 27.8567Z" fill="white"/>
<path d="M277.087 7.379C274.618 5.7196 271.693 5.51953 269.586 5.51953H262.027V40.0021H267.27V25.9972H269.633C272.149 25.9972 275.285 25.6324 278.011 23.3139C280.843 20.8896 281.358 17.7826 281.358 15.7701C281.358 12.6161 279.965 9.30908 277.087 7.39077V7.379ZM269.633 21.1367H267.27V10.38H269.586C275.554 10.38 276.315 13.793 276.315 15.6995C276.315 18.9006 274.162 21.1249 269.633 21.1249V21.1367Z" fill="white"/>
<path d="M300.548 16.1227C301.473 15.0282 302.186 14.1691 302.748 13.3335C303.368 12.4037 303.86 11.3563 303.86 10.0853C303.86 7.67269 302.175 5.41309 298.887 5.41309C296.944 5.41309 295.833 6.29574 295.283 6.91949C294.686 7.59031 294.054 8.80249 293.984 10.3089H296.254C296.347 8.84957 297.248 7.49616 298.98 7.49616C300.712 7.49616 301.543 8.70834 301.543 10.0029C301.543 10.9091 301.168 11.5799 300.735 12.239C300.232 12.9804 299.413 14.0043 298.887 14.6516L293.551 21.1597H303.906V18.9707H298.149L300.548 16.1109V16.1227Z" fill="white"/>
<path d="M311.548 5.40137C310.19 5.40137 309.032 5.9545 308.061 7.07253C306.446 8.932 306.095 11.4152 306.095 13.4159C306.095 15.4166 306.446 17.8763 308.061 19.7357C309.032 20.8538 310.167 21.4069 311.548 21.4069C312.928 21.4069 314.063 20.8538 315.035 19.7357C316.649 17.8763 317 15.4401 317 13.4159C317 11.3917 316.649 8.932 315.035 7.07253C314.063 5.9545 312.905 5.40137 311.548 5.40137ZM313.63 18.041C312.963 19.0649 312.156 19.3238 311.548 19.3238C310.939 19.3238 310.143 19.0649 309.465 18.041C308.611 16.7347 308.4 14.7693 308.4 13.3924C308.4 12.0154 308.611 10.05 309.465 8.76724C310.132 7.74335 310.939 7.48444 311.548 7.48444C312.156 7.48444 312.952 7.74335 313.63 8.76724C314.485 10.05 314.695 12.039 314.695 13.3924C314.695 14.7458 314.485 16.7347 313.63 18.041Z" fill="white"/>
<path d="M300.548 34.6002C301.473 33.5057 302.186 32.6466 302.748 31.811C303.368 30.8813 303.86 29.8339 303.86 28.5628C303.86 26.1502 302.175 23.8906 298.887 23.8906C296.944 23.8906 295.833 24.7733 295.283 25.397C294.686 26.0678 294.054 27.28 293.984 28.7864H296.254C296.347 27.3271 297.248 25.9737 298.98 25.9737C300.712 25.9737 301.543 27.1859 301.543 28.4805C301.543 29.3866 301.168 30.0575 300.735 30.7165C300.232 31.458 299.413 32.4818 298.887 33.1291L293.551 39.6373H303.906V37.4483H298.149L300.548 34.5884V34.6002Z" fill="white"/>
<path d="M314.239 34.5294V23.0078L304.351 36.7184H311.98V39.6489H314.239V36.7184H315.9V34.5294H314.239ZM311.969 34.5765H308.458L311.969 29.5748V34.5765Z" fill="white"/>
<path d="M123.355 30.9515L117.189 18.2412H111.127L120.383 36.5887L113.573 49.6168H119.201L135.279 18.2412H129.627L123.355 30.9515Z" fill="white"/>
<path d="M47.8699 13.522L33.6528 13.5338V16.5113L47.8699 16.5231L53.1706 18.9474V11.0977L47.8699 13.522Z" fill="white"/>
<path d="M64.1233 37.8251H53.4985V40.0612H64.1233L68.0901 41.8735V36.0127L64.1233 37.8251Z" fill="white"/>
<path d="M43.0959 29.6927C40.4397 29.6927 38.2984 31.8582 38.2984 34.5297C38.2984 36.754 38.3335 39.1548 38.3335 42.0382C38.3335 51.6062 30.8563 55.3487 24.7951 55.3487C18.7338 55.3487 12.2981 49.8409 12.2981 42.0382H20.723C23.3792 42.0382 25.5205 39.8727 25.5205 37.2012C25.5088 29.8222 25.4737 23.3611 25.4737 20.5602C39.3983 20.5602 43.4937 9.52104 43.4937 -0.0234375H4.79753C2.15304 0.000100056 0 2.16556 0 4.8253V42.0499C0 56.8668 11.9002 68.0001 24.8419 68.0001C41.212 68.0001 51.1698 56.043 51.1698 42.0499C57.3715 42.0499 60.8351 35.2947 60.8351 29.6927C55.2887 29.681 48.9817 29.6927 43.0959 29.6927ZM24.8653 3.67196C27.7204 3.67196 30.0372 6.00218 30.0372 8.87376C30.0372 11.7453 27.7204 14.0756 24.8653 14.0756C22.0102 14.0756 19.6933 11.7453 19.6933 8.87376C19.6933 6.00218 22.0102 3.67196 24.8653 3.67196ZM50.1635 37.0011C48.9114 37.0011 47.8934 35.9773 47.8934 34.718C47.8934 33.4587 48.9114 32.4349 50.1635 32.4349C51.4155 32.4349 52.4335 33.4587 52.4335 34.718C52.4335 35.9773 51.4155 37.0011 50.1635 37.0011Z" fill="white"/>
<path d="M36.5196 27.1975C37.922 27.1975 39.0588 26.0541 39.0588 24.6437C39.0588 23.2332 37.922 22.0898 36.5196 22.0898C35.1173 22.0898 33.9805 23.2332 33.9805 24.6437C33.9805 26.0541 35.1173 27.1975 36.5196 27.1975Z" fill="white"/>
</g>
<defs>
<clipPath id="clip0_2741_7231">
<rect width="317" height="68" fill="white"/>
</clipPath>
</defs>
</svg>
